<svg xmlns="http://www.w3.org/2000/svg" xmlns:xlink="http://www.w3.org/1999/xlink" fill="none" version="1.1" width="44.96998596191406" height="17.989999771118164" viewBox="0 0 44.96998596191406 17.989999771118164"><g><path d="M31.48,0L26.98,4.5L26.98,0L0.899994,0C0.399994,0,0,0.4,0,0.9L0,17.09C0,17.59,0.399994,17.99,0.899994,17.99L13.49,17.99L17.99,13.49L17.99,17.99L44.07,17.99C44.57,17.99,44.97,17.59,44.97,17.09L44.97,0.9C44.97,0.4,44.57,0,44.07,0L31.48,0ZM40.48,13.49L22.49,13.49L22.49,8.99L17.99,13.49L4.49998,13.49L4.49998,4.5L22.49,4.5L22.49,9L26.99,4.5L40.48,4.5L40.48,13.49Z" fill="#F7F7F7" fill-opacity="1"/></g></svg>